<mxfile host="app.diagrams.net" modified="2023-12-31T15:27:40.256Z" agent="Mozilla/5.0 (Windows NT 10.0; Win64; x64; rv:121.0) Gecko/20100101 Firefox/121.0" etag="2VTCYCgbZL-p419koGb6" version="22.1.16" type="github">
  <diagram name="Page-1" id="ehjXxDvXnvKOeFHR1vCq">
    <mxGraphModel dx="782" dy="454" grid="1" gridSize="10" guides="1" tooltips="1" connect="1" arrows="1" fold="1" page="1" pageScale="1" pageWidth="850" pageHeight="1100" math="0" shadow="0">
      <root>
        <mxCell id="0" />
        <mxCell id="1" parent="0" />
        <mxCell id="Cu2Ia4bixzbhLEkdR6Hr-48" style="edgeStyle=orthogonalEdgeStyle;rounded=1;orthogonalLoop=1;jettySize=auto;html=1;entryX=0.25;entryY=0;entryDx=0;entryDy=0;dashed=1;" edge="1" parent="1" source="Cu2Ia4bixzbhLEkdR6Hr-33" target="Cu2Ia4bixzbhLEkdR6Hr-35">
          <mxGeometry relative="1" as="geometry">
            <Array as="points">
              <mxPoint x="140" y="330" />
              <mxPoint x="140" y="330" />
            </Array>
          </mxGeometry>
        </mxCell>
        <mxCell id="Cu2Ia4bixzbhLEkdR6Hr-50" style="edgeStyle=orthogonalEdgeStyle;rounded=1;orthogonalLoop=1;jettySize=auto;html=1;entryX=0;entryY=0.25;entryDx=0;entryDy=0;dashed=1;" edge="1" parent="1" source="Cu2Ia4bixzbhLEkdR6Hr-33" target="Cu2Ia4bixzbhLEkdR6Hr-34">
          <mxGeometry relative="1" as="geometry">
            <Array as="points">
              <mxPoint x="300" y="130" />
              <mxPoint x="300" y="130" />
            </Array>
          </mxGeometry>
        </mxCell>
        <mxCell id="Cu2Ia4bixzbhLEkdR6Hr-57" style="edgeStyle=orthogonalEdgeStyle;rounded=1;orthogonalLoop=1;jettySize=auto;html=1;entryX=0.5;entryY=0;entryDx=0;entryDy=0;dashed=1;" edge="1" parent="1" source="Cu2Ia4bixzbhLEkdR6Hr-33" target="Cu2Ia4bixzbhLEkdR6Hr-36">
          <mxGeometry relative="1" as="geometry">
            <Array as="points">
              <mxPoint x="160" y="250" />
              <mxPoint x="400" y="250" />
            </Array>
          </mxGeometry>
        </mxCell>
        <mxCell id="Cu2Ia4bixzbhLEkdR6Hr-33" value="MOBILITY SUBSYSTEM" style="rounded=1;whiteSpace=wrap;html=1;fontFamily=Tahoma;fillColor=#33FF99;" vertex="1" parent="1">
          <mxGeometry x="120" y="120" width="80" height="40" as="geometry" />
        </mxCell>
        <mxCell id="Cu2Ia4bixzbhLEkdR6Hr-51" style="edgeStyle=orthogonalEdgeStyle;rounded=1;orthogonalLoop=1;jettySize=auto;html=1;entryX=1;entryY=0.5;entryDx=0;entryDy=0;dashed=1;" edge="1" parent="1" source="Cu2Ia4bixzbhLEkdR6Hr-34" target="Cu2Ia4bixzbhLEkdR6Hr-33">
          <mxGeometry relative="1" as="geometry">
            <Array as="points">
              <mxPoint x="320" y="140" />
              <mxPoint x="320" y="140" />
            </Array>
          </mxGeometry>
        </mxCell>
        <mxCell id="Cu2Ia4bixzbhLEkdR6Hr-52" style="edgeStyle=orthogonalEdgeStyle;rounded=1;orthogonalLoop=1;jettySize=auto;html=1;entryX=0.75;entryY=0;entryDx=0;entryDy=0;dashed=1;" edge="1" parent="1" source="Cu2Ia4bixzbhLEkdR6Hr-34" target="Cu2Ia4bixzbhLEkdR6Hr-36">
          <mxGeometry relative="1" as="geometry">
            <Array as="points">
              <mxPoint x="420" y="300" />
              <mxPoint x="420" y="300" />
            </Array>
          </mxGeometry>
        </mxCell>
        <mxCell id="Cu2Ia4bixzbhLEkdR6Hr-61" style="edgeStyle=orthogonalEdgeStyle;rounded=1;orthogonalLoop=1;jettySize=auto;html=1;entryX=0.803;entryY=-0.027;entryDx=0;entryDy=0;exitX=0.19;exitY=0.99;exitDx=0;exitDy=0;dashed=1;exitPerimeter=0;entryPerimeter=0;" edge="1" parent="1" source="Cu2Ia4bixzbhLEkdR6Hr-34" target="Cu2Ia4bixzbhLEkdR6Hr-35">
          <mxGeometry relative="1" as="geometry">
            <mxPoint x="375.2" y="163.53999999999996" as="sourcePoint" />
            <mxPoint x="184.8" y="367.5" as="targetPoint" />
            <Array as="points">
              <mxPoint x="375" y="210" />
              <mxPoint x="184" y="210" />
            </Array>
          </mxGeometry>
        </mxCell>
        <mxCell id="Cu2Ia4bixzbhLEkdR6Hr-34" value="BODY SUBSYSTEM" style="rounded=1;whiteSpace=wrap;html=1;fontFamily=Tahoma;fillColor=#B266FF;" vertex="1" parent="1">
          <mxGeometry x="360" y="120" width="80" height="40" as="geometry" />
        </mxCell>
        <mxCell id="Cu2Ia4bixzbhLEkdR6Hr-49" style="edgeStyle=orthogonalEdgeStyle;rounded=1;orthogonalLoop=1;jettySize=auto;html=1;entryX=0;entryY=0.5;entryDx=0;entryDy=0;dashed=1;" edge="1" parent="1" source="Cu2Ia4bixzbhLEkdR6Hr-35" target="Cu2Ia4bixzbhLEkdR6Hr-33">
          <mxGeometry relative="1" as="geometry">
            <Array as="points">
              <mxPoint x="100" y="385" />
              <mxPoint x="100" y="140" />
            </Array>
          </mxGeometry>
        </mxCell>
        <mxCell id="Cu2Ia4bixzbhLEkdR6Hr-55" style="edgeStyle=orthogonalEdgeStyle;rounded=1;orthogonalLoop=1;jettySize=auto;html=1;entryX=0;entryY=0.75;entryDx=0;entryDy=0;dashed=1;" edge="1" parent="1" source="Cu2Ia4bixzbhLEkdR6Hr-35" target="Cu2Ia4bixzbhLEkdR6Hr-36">
          <mxGeometry relative="1" as="geometry">
            <Array as="points">
              <mxPoint x="340" y="398" />
              <mxPoint x="340" y="398" />
            </Array>
          </mxGeometry>
        </mxCell>
        <mxCell id="Cu2Ia4bixzbhLEkdR6Hr-60" style="edgeStyle=orthogonalEdgeStyle;rounded=1;orthogonalLoop=1;jettySize=auto;html=1;dashed=1;" edge="1" parent="1" source="Cu2Ia4bixzbhLEkdR6Hr-35">
          <mxGeometry relative="1" as="geometry">
            <mxPoint x="390" y="160" as="targetPoint" />
            <Array as="points">
              <mxPoint x="160" y="290" />
              <mxPoint x="390" y="290" />
            </Array>
          </mxGeometry>
        </mxCell>
        <mxCell id="Cu2Ia4bixzbhLEkdR6Hr-35" value="P.D.M.E.M. SUBSYSTEM" style="rounded=1;whiteSpace=wrap;html=1;fontFamily=Tahoma;fillColor=#99FF33;" vertex="1" parent="1">
          <mxGeometry x="120" y="365" width="80" height="40" as="geometry" />
        </mxCell>
        <mxCell id="Cu2Ia4bixzbhLEkdR6Hr-53" style="edgeStyle=orthogonalEdgeStyle;rounded=1;orthogonalLoop=1;jettySize=auto;html=1;entryX=1;entryY=0.5;entryDx=0;entryDy=0;dashed=1;" edge="1" parent="1" source="Cu2Ia4bixzbhLEkdR6Hr-36" target="Cu2Ia4bixzbhLEkdR6Hr-34">
          <mxGeometry relative="1" as="geometry">
            <Array as="points">
              <mxPoint x="460" y="385" />
              <mxPoint x="460" y="140" />
            </Array>
          </mxGeometry>
        </mxCell>
        <mxCell id="Cu2Ia4bixzbhLEkdR6Hr-54" style="edgeStyle=orthogonalEdgeStyle;rounded=1;orthogonalLoop=1;jettySize=auto;html=1;entryX=1;entryY=0.5;entryDx=0;entryDy=0;dashed=1;" edge="1" parent="1" source="Cu2Ia4bixzbhLEkdR6Hr-36" target="Cu2Ia4bixzbhLEkdR6Hr-35">
          <mxGeometry relative="1" as="geometry">
            <Array as="points">
              <mxPoint x="290" y="385" />
              <mxPoint x="290" y="385" />
            </Array>
          </mxGeometry>
        </mxCell>
        <mxCell id="Cu2Ia4bixzbhLEkdR6Hr-59" style="edgeStyle=orthogonalEdgeStyle;rounded=1;orthogonalLoop=1;jettySize=auto;html=1;entryX=0.75;entryY=1;entryDx=0;entryDy=0;dashed=1;" edge="1" parent="1" source="Cu2Ia4bixzbhLEkdR6Hr-36" target="Cu2Ia4bixzbhLEkdR6Hr-33">
          <mxGeometry relative="1" as="geometry">
            <Array as="points">
              <mxPoint x="370" y="330" />
              <mxPoint x="220" y="330" />
              <mxPoint x="220" y="190" />
              <mxPoint x="180" y="190" />
            </Array>
          </mxGeometry>
        </mxCell>
        <mxCell id="Cu2Ia4bixzbhLEkdR6Hr-36" value="ROBOTIC ARM SUBSYSTEM" style="rounded=1;whiteSpace=wrap;html=1;fontFamily=Tahoma;fillColor=#FF66FF;" vertex="1" parent="1">
          <mxGeometry x="360" y="360" width="80" height="50" as="geometry" />
        </mxCell>
        <mxCell id="Cu2Ia4bixzbhLEkdR6Hr-64" value="Distance from the ground" style="text;html=1;strokeColor=none;fillColor=none;align=center;verticalAlign=middle;whiteSpace=wrap;rounded=0;fontFamily=Tahoma;fontSize=10;" vertex="1" parent="1">
          <mxGeometry x="220" y="110" width="120" height="20" as="geometry" />
        </mxCell>
        <mxCell id="Cu2Ia4bixzbhLEkdR6Hr-65" value="Body weight" style="text;html=1;strokeColor=none;fillColor=none;align=center;verticalAlign=middle;whiteSpace=wrap;rounded=0;fontFamily=Tahoma;fontSize=10;" vertex="1" parent="1">
          <mxGeometry x="220" y="140" width="120" height="20" as="geometry" />
        </mxCell>
        <mxCell id="Cu2Ia4bixzbhLEkdR6Hr-66" value="Energy needs" style="text;html=1;strokeColor=none;fillColor=none;align=center;verticalAlign=middle;whiteSpace=wrap;rounded=0;fontFamily=Tahoma;fontSize=10;rotation=0;" vertex="1" parent="1">
          <mxGeometry x="220" y="365" width="120" height="20" as="geometry" />
        </mxCell>
        <mxCell id="Cu2Ia4bixzbhLEkdR6Hr-67" value="Distance from the ground" style="text;html=1;strokeColor=none;fillColor=none;align=center;verticalAlign=middle;whiteSpace=wrap;rounded=0;fontFamily=Tahoma;fontSize=10;" vertex="1" parent="1">
          <mxGeometry x="230" y="310" width="120" height="20" as="geometry" />
        </mxCell>
        <mxCell id="Cu2Ia4bixzbhLEkdR6Hr-68" value="Energy intakes" style="text;html=1;strokeColor=none;fillColor=none;align=center;verticalAlign=middle;whiteSpace=wrap;rounded=0;fontFamily=Tahoma;fontSize=10;rotation=-90;" vertex="1" parent="1">
          <mxGeometry x="30" y="250" width="120" height="20" as="geometry" />
        </mxCell>
        <mxCell id="Cu2Ia4bixzbhLEkdR6Hr-69" value="Energy intakes" style="text;html=1;strokeColor=none;fillColor=none;align=center;verticalAlign=middle;whiteSpace=wrap;rounded=0;fontFamily=Tahoma;fontSize=10;rotation=0;" vertex="1" parent="1">
          <mxGeometry x="220" y="400" width="120" height="20" as="geometry" />
        </mxCell>
        <mxCell id="Cu2Ia4bixzbhLEkdR6Hr-70" value="Energy needs" style="text;html=1;strokeColor=none;fillColor=none;align=center;verticalAlign=middle;whiteSpace=wrap;rounded=0;fontFamily=Tahoma;fontSize=10;rotation=-90;" vertex="1" parent="1">
          <mxGeometry x="70" y="260" width="120" height="20" as="geometry" />
        </mxCell>
        <mxCell id="Cu2Ia4bixzbhLEkdR6Hr-71" value="Mechanical interface" style="text;html=1;strokeColor=none;fillColor=none;align=center;verticalAlign=middle;whiteSpace=wrap;rounded=0;fontFamily=Tahoma;fontSize=10;rotation=-90;" vertex="1" parent="1">
          <mxGeometry x="370" y="260" width="120" height="20" as="geometry" />
        </mxCell>
        <mxCell id="Cu2Ia4bixzbhLEkdR6Hr-72" value="Headsets shape" style="text;html=1;strokeColor=none;fillColor=none;align=center;verticalAlign=middle;whiteSpace=wrap;rounded=0;fontFamily=Tahoma;fontSize=10;rotation=-90;" vertex="1" parent="1">
          <mxGeometry x="410" y="260" width="120" height="20" as="geometry" />
        </mxCell>
        <mxCell id="Cu2Ia4bixzbhLEkdR6Hr-73" value="Terrain constraints" style="text;html=1;strokeColor=none;fillColor=none;align=center;verticalAlign=middle;whiteSpace=wrap;rounded=0;fontFamily=Tahoma;fontSize=10;rotation=0;" vertex="1" parent="1">
          <mxGeometry x="250" y="230" width="120" height="20" as="geometry" />
        </mxCell>
        <mxCell id="Cu2Ia4bixzbhLEkdR6Hr-74" value="P.D.M. shape" style="text;html=1;strokeColor=none;fillColor=none;align=center;verticalAlign=middle;whiteSpace=wrap;rounded=0;fontFamily=Tahoma;fontSize=10;rotation=0;" vertex="1" parent="1">
          <mxGeometry x="240" y="270" width="120" height="20" as="geometry" />
        </mxCell>
        <mxCell id="Cu2Ia4bixzbhLEkdR6Hr-75" value="Mechanical interface" style="text;html=1;strokeColor=none;fillColor=none;align=center;verticalAlign=middle;whiteSpace=wrap;rounded=0;fontFamily=Tahoma;fontSize=10;rotation=0;" vertex="1" parent="1">
          <mxGeometry x="250" y="190" width="120" height="20" as="geometry" />
        </mxCell>
      </root>
    </mxGraphModel>
  </diagram>
</mxfile>
